<svg width="1280" height="720" viewBox="0 0 1280 720" fill="none" xmlns="http://www.w3.org/2000/svg">
<g clip-path="url(#clip0_223_2)">
<rect width="1280" height="720" fill="#034458"/>
<path d="M93 317.5L286.056 252.874C312.479 244.028 334.013 224.56 345.469 199.16L411.928 51.8082C421.355 30.9064 437.679 13.8792 458.165 3.57929L953.791 -245.612C976.042 -256.799 1001.67 -259.281 1025.65 -252.571L1227.17 -196.193C1313.98 -171.907 1326.87 -54.1928 1247.37 -11.6995L1208.71 8.9635C1195.73 15.9022 1184.44 25.6211 1175.65 37.4263L1026.95 237.099C1003.47 268.628 963.693 283.475 925.296 275.042L738.389 233.994C678.976 220.946 621.773 263.522 617.219 324.18L607.891 448.434C604.326 495.93 567.755 534.321 520.487 540.186L365.104 559.469C320.32 565.027 284.807 599.891 278.424 644.565L212.239 1107.84C200.413 1190.62 98.2562 1223.19 40.7014 1162.53L-406.566 691.135C-453.815 641.338 -437.991 559.832 -375.542 531.331L93 317.5Z" fill="url(#paint0_linear_223_2)"/>
<path d="M1326.14 542.344L1245.41 572.49C1219.13 582.303 1198.18 602.705 1187.67 628.715L1163.47 688.613C1155.03 709.516 1139.77 726.953 1120.17 738.093L896.703 865.116C871.51 879.437 841.343 882.124 814.015 872.482L754.125 851.353C686.553 827.512 665.246 742.427 713.61 689.555L742.354 658.132L822.824 586.886C848.273 564.354 883.424 556.292 916.148 565.481L936.557 571.212C995.293 587.706 1054.51 546.582 1059.57 485.783V485.783C1063.37 440.086 1098.62 403.278 1144.11 397.51L1152.06 396.502C1196.81 390.828 1232.22 355.899 1238.51 311.233L1258.47 169.434C1270.81 81.7317 1382.65 52.1804 1436.7 122.339L1563.79 287.29C1601.9 336.753 1585.86 408.658 1530.34 437.235L1326.14 542.344Z" fill="url(#paint1_linear_223_2)"/>
</g>
<defs>
<linearGradient id="paint0_linear_223_2" x1="132.037" y1="222.909" x2="1686.24" y2="222.909" gradientUnits="userSpaceOnUse">
<stop stop-color="#034458"/>
<stop offset="0.671666" stop-color="#446D5E"/>
</linearGradient>
<linearGradient id="paint1_linear_223_2" x1="1304.85" y1="599.695" x2="502.658" y2="583.956" gradientUnits="userSpaceOnUse">
<stop stop-color="#034458"/>
<stop offset="1" stop-color="#446D5E"/>
</linearGradient>
<clipPath id="clip0_223_2">
<rect width="1280" height="720" fill="white"/>
</clipPath>
</defs>
</svg>
